<?xml version="1.0" standalone="no"?>
<!DOCTYPE svg PUBLIC "-//W3C//DTD SVG 20010904//EN"
 "http://www.w3.org/TR/2001/REC-SVG-20010904/DTD/svg10.dtd">
<svg version="1.0" xmlns="http://www.w3.org/2000/svg"
 width="1024.000000pt" height="1024.000000pt" viewBox="0 0 1024.000000 1024.000000"
 preserveAspectRatio="xMidYMid meet">
<metadata>
Created by potrace 1.11, written by Peter Selinger 2001-2013
</metadata>
<g transform="translate(0.000000,1024.000000) scale(0.100000,-0.100000)"
fill="#000000" stroke="none">
<path d="M5188 9605 c-3 -3 -63 -8 -134 -10 -128 -4 -197 -9 -284 -20 -25 -3
-63 -8 -85 -10 -22 -3 -51 -7 -65 -10 -13 -2 -42 -7 -64 -11 -22 -3 -43 -7
-46 -9 -4 -2 -29 -7 -56 -11 -27 -3 -59 -10 -72 -15 -13 -5 -28 -7 -33 -3 -5
3 -9 1 -9 -3 0 -5 -10 -9 -22 -10 -18 -2 -198 -54 -238 -70 -8 -3 -22 -7 -30
-9 -14 -3 -58 -20 -137 -55 -24 -11 -46 -19 -50 -19 -7 0 -86 -40 -238 -118
-16 -8 -33 -20 -37 -26 -4 -6 -8 -8 -8 -4 0 6 -179 -109 -225 -144 -58 -44
-161 -132 -163 -139 -2 -5 -7 -9 -11 -9 -8 0 -141 -133 -181 -180 -12 -14 -29
-34 -38 -45 -77 -90 -228 -319 -248 -375 -1 -3 -5 -15 -9 -27 -4 -13 -11 -23
-16 -23 -5 0 -9 -6 -9 -13 0 -7 -9 -32 -20 -55 -11 -23 -23 -56 -27 -72 -3
-17 -9 -30 -14 -30 -5 0 -8 -3 -8 -7 1 -5 0 -10 -1 -13 -1 -3 -3 -12 -5 -20
-1 -8 -10 -40 -19 -71 -9 -31 -19 -66 -21 -78 -3 -11 -7 -31 -10 -43 -24 -106
-42 -323 -28 -331 4 -2 42 -8 83 -11 41 -4 93 -9 115 -11 44 -5 139 -14 225
-20 30 -3 75 -7 100 -10 25 -3 74 -7 110 -10 36 -3 90 -7 120 -11 30 -3 73 -7
95 -9 22 -2 67 -6 100 -10 33 -4 89 -9 125 -11 109 -9 145 -12 145 -14 0 -2
137 -11 199 -13 l49 -2 27 75 c33 89 128 286 162 335 136 191 236 296 371 386
118 79 268 146 367 164 14 3 36 8 50 11 37 9 221 14 216 6 -2 -4 19 -7 47 -8
80 -1 137 -16 234 -60 50 -22 91 -51 133 -92 33 -33 60 -62 60 -65 0 -2 12
-26 27 -53 15 -27 29 -53 30 -59 2 -5 12 -44 23 -85 24 -90 29 -115 37 -195 9
-97 11 -728 2 -746 -6 -13 -23 -16 -74 -15 -36 1 -65 -1 -65 -4 0 -3 -24 -5
-53 -6 -28 0 -88 -4 -132 -8 -44 -4 -104 -8 -133 -11 -30 -2 -70 -6 -90 -9
-20 -3 -59 -8 -87 -11 -77 -8 -107 -12 -145 -19 -19 -4 -48 -8 -65 -11 -16 -2
-41 -6 -55 -9 -14 -2 -59 -10 -100 -17 -41 -7 -77 -13 -80 -14 -3 -1 -23 -5
-45 -10 -22 -4 -47 -9 -55 -11 -8 -2 -44 -10 -80 -19 -36 -8 -89 -21 -117 -29
-29 -8 -53 -12 -53 -9 0 3 -6 1 -12 -5 -7 -5 -29 -13 -48 -17 -133 -26 -529
-178 -715 -275 -90 -47 -293 -166 -305 -180 -3 -3 -27 -21 -55 -40 -27 -19
-55 -39 -61 -45 -7 -5 -31 -26 -55 -45 -60 -47 -248 -236 -284 -285 -16 -22
-32 -42 -35 -45 -9 -6 -130 -188 -130 -194 0 -2 -15 -30 -33 -63 -52 -92 -122
-270 -153 -388 -4 -16 -8 -32 -9 -35 -7 -26 -28 -131 -31 -155 -1 -16 -5 -43
-8 -60 -32 -185 -24 -529 18 -755 13 -68 17 -87 27 -116 5 -17 11 -40 13 -50
3 -10 10 -32 16 -49 6 -16 13 -37 15 -45 23 -99 187 -396 264 -477 12 -13 20
-23 17 -23 -9 0 159 -165 209 -206 28 -23 79 -61 115 -85 36 -24 67 -46 70
-49 11 -13 259 -129 320 -150 36 -12 74 -26 85 -30 11 -5 34 -11 50 -15 17 -3
46 -10 65 -15 178 -43 314 -59 515 -59 131 0 203 4 280 14 28 4 61 8 75 10 30
3 165 29 205 39 6 2 24 6 40 10 49 12 247 78 285 95 19 8 37 15 40 16 3 1 23
10 45 20 22 10 42 19 45 19 32 7 322 181 328 197 2 5 8 9 13 9 5 0 18 8 30 18
46 38 58 48 79 62 53 35 241 234 309 327 l75 101 49 -62 c77 -97 178 -205 373
-400 197 -198 475 -466 482 -466 5 0 24 19 407 395 525 517 725 717 725 726 0
5 -4 9 -8 9 -11 0 -225 209 -278 271 -83 97 -194 250 -194 268 0 5 -7 14 -15
21 -8 7 -13 16 -10 20 3 5 -1 14 -8 22 -7 7 -19 29 -27 48 -8 19 -17 37 -20
40 -5 4 -32 81 -36 100 0 3 -4 12 -7 20 -13 30 -33 136 -32 168 0 17 -2 32 -6
32 -4 0 -4 11 -1 25 4 13 5 58 2 100 -3 41 -1 75 3 75 5 0 6 4 3 9 -3 5 -6 39
-6 77 0 38 0 107 0 154 -1 47 -1 92 -1 100 2 109 -1 205 -5 212 -3 4 -2 8 3 8
4 0 7 51 6 112 -3 132 -3 135 -3 212 -1 32 -3 63 -6 67 -3 5 0 9 6 9 6 0 9 4
6 9 -3 5 -6 39 -6 77 0 38 0 107 0 154 -1 47 -1 92 -1 100 2 109 -1 205 -5
212 -3 4 -2 8 3 8 4 0 7 51 6 112 -3 132 -3 135 -3 212 -1 32 -3 63 -6 67 -3
5 0 9 6 9 6 0 9 4 6 9 -3 5 -6 39 -6 77 0 38 0 107 0 154 -1 47 -1 92 -1 100
2 109 -1 205 -5 212 -3 4 -2 8 3 8 8 0 8 213 -1 236 -3 7 -1 16 5 19 5 4 7 10
4 15 -3 4 -7 43 -10 86 -5 82 -10 114 -25 174 -5 19 -11 46 -14 60 -31 155
-187 448 -323 610 -36 42 -180 187 -220 220 -167 140 -390 269 -588 340 -49
18 -99 37 -110 42 -12 5 -27 10 -35 12 -8 1 -35 8 -60 15 -25 7 -55 15 -67 17
-12 2 -34 9 -48 14 -14 5 -25 8 -25 5 0 -2 -15 1 -32 6 -32 9 -129 26 -198 35
-19 2 -48 6 -65 8 -74 11 -148 17 -248 20 -60 2 -110 6 -113 9 -3 2 -20 1 -39
-3 -18 -4 -37 -4 -42 1 -5 5 -12 7 -15 4z m597 -3988 c0 -243 -4 -447 -8 -454
-4 -6 -3 -14 3 -18 6 -4 8 -10 6 -14 -3 -4 -7 -32 -10 -62 -8 -91 -38 -261
-53 -299 -3 -8 -7 -22 -9 -30 -12 -59 -107 -252 -156 -315 -33 -44 -168 -178
-168 -168 0 4 -4 3 -8 -3 -35 -52 -239 -137 -359 -150 -45 -5 -172 -8 -183 -4
-7 2 -37 7 -80 14 -47 6 -67 12 -120 31 -49 17 -152 66 -160 76 -3 3 -10 8
-16 10 -28 10 -162 131 -199 180 -64 84 -121 205 -146 309 -7 30 -13 114 -13
185 -1 149 7 210 40 324 20 70 93 221 107 221 6 0 7 3 4 6 -6 6 26 48 103 138
14 16 59 55 100 87 41 32 81 64 88 70 37 31 302 156 345 163 6 1 17 4 22 8 9
5 140 44 183 53 51 12 232 47 262 51 19 2 49 7 66 9 43 7 145 15 237 20 43 1
80 5 83 8 3 3 13 3 22 0 16 -4 17 -39 17 -446z"/>
<path d="M8605 2922 c-2 -2 -26 -5 -55 -7 -28 -2 -69 -6 -90 -10 -22 -4 -42
-7 -45 -7 -2 0 -37 -9 -77 -19 -40 -11 -80 -21 -88 -23 -8 -3 -28 -9 -45 -16
-16 -6 -30 -11 -30 -10 0 1 -25 -7 -70 -23 -27 -9 -62 -24 -175 -75 -85 -38
-170 -115 -170 -154 0 -33 22 -47 70 -43 63 6 174 17 210 21 19 2 60 6 90 9
30 2 71 7 90 9 176 23 496 24 600 1 14 -2 34 -7 45 -9 38 -8 110 -44 126 -63
9 -11 21 -34 27 -51 11 -32 10 -176 -3 -242 -3 -19 -8 -44 -10 -55 -6 -35 -56
-218 -71 -265 -42 -126 -97 -279 -110 -307 -8 -17 -14 -33 -14 -36 0 -2 -8
-22 -17 -43 -9 -22 -17 -41 -18 -44 0 -3 -8 -21 -17 -40 -44 -95 -41 -143 7
-148 17 -2 46 4 65 14 58 30 203 187 279 302 39 59 75 112 79 117 8 11 80 159
105 215 33 75 80 219 103 310 18 72 24 99 28 125 3 17 8 41 11 55 19 83 26
300 12 351 -10 37 -36 62 -90 87 -76 35 -152 53 -292 68 -58 6 -454 11 -460 6z"/>
<path d="M828 2838 c-31 -11 -53 -57 -42 -90 4 -13 7 -25 7 -29 -4 -16 177
-219 317 -355 143 -139 210 -202 210 -197 0 3 8 -4 18 -15 19 -22 160 -141
304 -256 32 -25 60 -46 63 -46 3 0 16 -9 28 -21 12 -11 47 -38 77 -59 30 -22
60 -43 65 -47 6 -5 26 -19 45 -33 19 -13 37 -27 40 -30 3 -3 17 -11 33 -17 15
-7 27 -17 27 -23 0 -5 6 -10 14 -10 8 0 21 -6 28 -13 21 -20 207 -137 218
-137 6 0 10 -3 10 -8 0 -4 17 -16 38 -27 20 -11 53 -29 72 -41 19 -11 67 -38
105 -59 39 -21 89 -49 113 -62 23 -14 42 -21 42 -16 0 4 4 4 8 -2 12 -16 149
-85 156 -78 3 3 6 1 6 -5 0 -7 4 -12 10 -12 5 0 37 -13 70 -29 33 -16 60 -27
60 -24 0 4 9 -2 21 -13 12 -10 23 -18 25 -16 2 1 21 -5 42 -14 20 -8 75 -30
122 -48 47 -18 94 -37 105 -41 11 -5 23 -9 28 -10 4 -2 9 -4 12 -5 3 -1 8 -3
13 -5 4 -1 20 -7 35 -13 15 -7 40 -15 55 -18 15 -4 32 -9 37 -13 6 -3 12 -6
15 -6 3 -1 39 -12 80 -25 41 -13 80 -25 85 -26 6 -2 24 -7 42 -12 17 -6 34 -8
37 -4 3 3 6 1 6 -5 0 -6 15 -13 33 -16 17 -2 59 -12 92 -20 33 -9 74 -19 90
-23 17 -4 32 -8 35 -9 3 0 21 -4 40 -8 19 -4 46 -10 60 -13 28 -6 48 -9 105
-18 22 -4 49 -9 61 -11 20 -4 129 -21 199 -30 111 -15 225 -24 371 -29 50 -1
95 -5 100 -8 5 -3 18 -2 28 2 11 3 37 3 58 0 21 -4 38 -5 38 -1 0 3 55 6 123
7 159 1 378 14 482 29 28 4 61 9 75 11 121 14 131 15 200 30 14 2 39 6 55 9
17 2 55 8 85 14 30 7 69 14 85 17 17 3 63 14 104 24 41 10 78 17 83 14 4 -3 8
-1 8 4 0 5 6 9 13 9 14 0 119 28 192 50 51 15 66 20 75 22 45 10 337 115 408
147 29 13 56 24 60 24 5 0 30 11 58 24 27 13 87 40 134 61 153 69 534 278 595
328 6 4 42 28 80 54 39 25 72 50 73 54 2 5 8 9 14 9 5 0 16 6 23 13 33 29 45
37 54 37 5 0 11 3 13 8 2 4 39 36 83 71 175 141 297 267 339 349 21 41 27 97
14 133 -11 33 -78 60 -118 49 -38 -11 -244 -103 -251 -113 -3 -5 -9 -8 -13 -7
-4 1 -30 -8 -59 -21 -29 -13 -55 -22 -59 -21 -5 1 -8 -2 -8 -8 0 -6 -3 -9 -7
-8 -5 1 -30 -8 -57 -20 -27 -12 -55 -22 -62 -22 -8 0 -14 -4 -14 -10 0 -5 -6
-10 -14 -10 -13 0 -89 -29 -161 -61 -22 -10 -142 -54 -190 -71 -16 -5 -39 -14
-50 -19 -12 -6 -27 -11 -35 -13 -8 -2 -24 -6 -35 -10 -11 -5 -37 -14 -58 -22
-20 -8 -37 -11 -37 -8 0 4 -6 1 -14 -5 -8 -7 -22 -13 -32 -15 -26 -5 -125 -36
-149 -46 -24 -11 -300 -90 -335 -96 -14 -3 -34 -8 -45 -11 -11 -4 -25 -8 -30
-9 -29 -5 -192 -46 -205 -51 -8 -3 -19 -5 -23 -4 -4 0 -36 -5 -70 -13 -34 -8
-79 -17 -99 -20 -21 -3 -58 -10 -83 -16 -25 -6 -62 -12 -83 -15 -20 -3 -53 -8
-72 -12 -19 -3 -45 -7 -56 -9 -12 -1 -37 -5 -55 -8 -79 -12 -144 -20 -274 -31
-38 -4 -81 -8 -95 -11 -113 -18 -694 -25 -905 -11 -155 11 -224 16 -270 22
-22 3 -60 7 -85 10 -25 2 -58 6 -75 10 -16 3 -46 8 -65 10 -19 3 -48 7 -65 10
-16 3 -46 7 -65 10 -19 2 -46 7 -60 10 -36 8 -62 13 -106 19 -22 4 -47 9 -56
12 -17 5 -41 10 -90 19 -15 3 -98 24 -185 46 -87 23 -165 42 -173 44 -8 1 -28
7 -43 14 -16 6 -31 11 -35 11 -12 0 -302 97 -377 125 -38 15 -83 30 -98 35
-16 5 -35 14 -43 21 -8 6 -14 8 -14 4 0 -4 -7 -1 -17 6 -9 8 -19 13 -22 12
-21 -9 -721 313 -737 338 -3 5 -14 9 -24 9 -10 0 -20 3 -22 8 -2 4 -25 18 -52
32 -46 24 -191 103 -300 165 -94 53 -151 85 -166 95 -8 5 -55 33 -104 62 -49
29 -110 65 -135 81 -25 15 -53 30 -61 34 -8 4 -17 10 -20 13 -3 4 -23 17 -45
29 -22 12 -60 35 -85 51 -94 62 -139 75 -192 58z"/>
</g>
</svg>
